<?xml version="1.0" standalone="no"?>
<!DOCTYPE svg PUBLIC "-//W3C//DTD SVG 20010904//EN" "http://www.w3.org/TR/2001/REC-SVG-20010904/DTD/svg10.dtd">
<svg version="1.0" xmlns="http://www.w3.org/2000/svg" width="32.000000pt" height="32.000000pt" viewBox="0 0 32.000000 32.000000" preserveAspectRatio="xMidYMid meet">
	<g transform="translate(0.000000,32.000000) scale(0.100000,-0.100000)" fill="#0032fc" stroke="none">
		<path d="M149 283 c0 -16 -8 -46 -18 -67 l-17 -40 -57 3 -57 2 0 -85 0 -86 50
0 c28 0 50 4 50 8 0 4 31 6 70 4 100 -6 116 0 125 45 4 21 11 43 17 50 6 8 6
18 -2 30 -11 17 -11 17 -6 -1 4 -10 2 -24 -3 -30 -5 -6 -13 -27 -18 -46 l-9
-35 -67 -3 c-37 -2 -76 2 -87 8 -31 17 -27 84 10 151 16 30 30 66 30 82 0 30
11 35 30 12 8 -9 10 -28 6 -50 -4 -19 -3 -35 1 -35 12 0 14 69 3 91 -17 30
-50 25 -51 -8z" />
		<path d="M296 186 c21 -15 30 -14 19 3 -3 6 -14 11 -23 11 -13 0 -13 -2 4 -14z" />
	</g>
</svg>