<?xml version="1.0" standalone="no"?>
<!DOCTYPE svg PUBLIC "-//W3C//DTD SVG 20010904//EN" "http://www.w3.org/TR/2001/REC-SVG-20010904/DTD/svg10.dtd">
<svg version="1.0" xmlns="http://www.w3.org/2000/svg" width="512.000000pt" height="512.000000pt" viewBox="0 0 512.000000 512.000000" preserveAspectRatio="xMidYMid meet">
	<g transform="translate(0.000000,512.000000) scale(0.100000,-0.100000)" fill="#0032fc" stroke="none">
		<path d="M60 4997 c-14 -7 -33 -28 -42 -47 -17 -33 -18 -117 -18 -1323 0
-1108 2 -1293 15 -1323 27 -66 1 -64 828 -64 410 0 758 3 776 6 47 10 81 49
81 95 0 46 14 57 34 27 8 -13 149 -313 313 -668 l298 -645 5 -394 5 -393 33
-28 c119 -99 351 -154 478 -114 132 41 313 203 409 365 58 98 109 242 127 352
26 168 -34 569 -131 875 -21 65 -26 95 -18 98 7 2 338 5 737 6 l725 3 56 23
c171 69 298 219 335 394 30 142 -8 304 -100 427 l-25 34 29 37 c45 57 80 133
96 213 35 167 -40 367 -173 460 -25 18 -52 37 -60 43 -13 9 -12 19 7 83 31
100 25 227 -14 323 -32 76 -123 184 -187 220 -28 16 -38 26 -33 38 58 135 57
275 -5 405 -52 111 -151 200 -277 247 l-59 23 -1100 0 c-1086 0 -1101 0 -1195
-21 -78 -18 -201 -59 -292 -99 -17 -7 -18 3 -18 131 0 149 -6 167 -57 193 -33
17 -1549 15 -1583 -2z m4260 -433 c95 -44 160 -143 160 -244 0 -64 -24 -122
-75 -184 -69 -84 -38 -171 69 -195 74 -16 143 -65 181 -125 24 -40 30 -62 33
-121 5 -84 -13 -134 -71 -203 -69 -81 -43 -158 61 -188 84 -24 126 -48 166
-96 36 -42 66 -118 66 -168 0 -15 -7 -50 -16 -79 -15 -52 -50 -94 -148 -177
-31 -27 -36 -37 -36 -74 0 -39 5 -47 71 -111 88 -87 121 -154 121 -249 0 -166
-111 -293 -278 -320 -34 -6 -378 -10 -812 -10 -497 0 -760 -3 -773 -10 -23
-13 -49 -61 -49 -90 0 -12 20 -81 44 -153 80 -236 134 -485 157 -720 11 -108
11 -135 -4 -207 -37 -189 -191 -415 -338 -495 -46 -25 -59 -27 -113 -22 -34 3
-88 15 -119 27 l-56 21 -3 367 -3 367 -322 693 c-176 381 -328 703 -336 716
-9 13 -56 44 -106 70 l-91 47 0 899 0 900 71 35 c121 62 275 108 394 118 22 2
506 3 1075 3 1028 -1 1035 -1 1080 -22z" />
	</g>
</svg>