<?xml version="1.0" standalone="no"?>
<!DOCTYPE svg PUBLIC "-//W3C//DTD SVG 20010904//EN"
 "http://www.w3.org/TR/2001/REC-SVG-20010904/DTD/svg10.dtd">
<svg version="1.0" xmlns="http://www.w3.org/2000/svg"
 width="128.000000pt" height="128.000000pt" viewBox="0 0 128.000000 128.000000"
 preserveAspectRatio="xMidYMid meet">

<g transform="translate(0.000000,128.000000) scale(0.100000,-0.100000)"
fill="#000000" stroke="none">
<path d="M355 1246 c-168 -42 -294 -177 -326 -350 -24 -127 23 -268 121 -367
130 -131 327 -163 492 -80 l56 29 36 -37 c24 -25 36 -46 36 -65 0 -23 28 -56
148 -178 165 -168 189 -186 233 -168 33 14 94 78 103 108 11 35 -16 71 -172
225 -122 119 -155 147 -178 147 -19 0 -40 12 -65 36 l-37 36 29 56 c126 251
-20 551 -299 611 -66 14 -112 13 -177 -3z m260 -61 c76 -37 153 -113 191 -190
26 -55 29 -69 29 -165 0 -96 -3 -110 -29 -165 -38 -77 -114 -153 -191 -191
-55 -26 -69 -29 -165 -29 -96 0 -110 3 -165 29 -77 38 -153 114 -191 191 -26
55 -29 69 -29 165 0 94 3 111 27 160 51 104 126 172 231 211 80 30 212 22 292
-16z m203 -668 l32 -33 -28 -27 -28 -27 -34 35 -34 35 24 25 c13 14 26 25 30
25 3 0 20 -15 38 -33z m254 -194 c91 -91 148 -155 148 -167 0 -27 -69 -96 -95
-96 -27 0 -315 288 -315 315 0 26 69 95 94 95 13 0 75 -54 168 -147z"/>
<path d="M360 1147 c-91 -26 -173 -97 -213 -186 -30 -66 -30 -198 0 -263 30
-66 96 -133 162 -165 48 -24 68 -28 141 -28 73 0 93 4 141 28 66 32 132 99
162 165 34 73 31 198 -6 273 -32 67 -100 133 -165 161 -57 26 -161 32 -222 15z
m-22 -74 c-12 -21 -23 -40 -24 -42 -6 -7 -54 10 -54 19 0 9 78 60 92 60 4 0
-2 -17 -14 -37z m89 -60 c-3 -2 -21 -1 -41 2 -35 7 -35 7 -21 35 8 16 25 36
37 45 23 15 23 15 26 -31 2 -25 1 -48 -1 -51z m103 46 c12 -16 21 -32 19 -34
-2 -2 -21 -6 -41 -10 l-38 -7 0 51 c0 48 1 51 19 41 11 -5 29 -24 41 -41z m76
20 c43 -28 47 -33 29 -40 -37 -14 -50 -9 -72 31 -12 22 -18 40 -14 40 4 0 29
-14 57 -31z m-312 -99 c-3 -8 -8 -41 -11 -72 l-6 -58 -60 0 -60 0 6 40 c3 22
17 60 31 84 l25 43 41 -10 c30 -9 39 -15 34 -27z m427 -35 c10 -22 19 -52 19
-67 0 -27 -1 -28 -59 -28 l-58 0 -6 58 c-3 31 -7 63 -8 71 -3 8 10 19 31 26
40 15 49 8 81 -60z m-291 -31 l0 -64 -61 0 -61 0 7 47 c12 83 17 89 69 85 l46
-4 0 -64z m138 59 c6 -10 13 -42 17 -70 l7 -53 -61 0 -61 0 0 64 0 65 43 4
c23 2 43 4 44 5 1 1 6 -6 11 -15z m-285 -220 c3 -32 8 -65 12 -74 5 -13 -2
-20 -31 -29 -33 -11 -39 -11 -52 6 -25 33 -52 98 -52 127 0 26 1 27 59 27 l58
0 6 -57z m147 -8 c0 -45 -4 -65 -12 -65 -7 0 -29 -3 -49 -6 l-36 -6 -11 58
c-18 87 -20 84 48 84 l60 0 0 -65z m160 51 c0 -19 -19 -119 -24 -123 -2 -3
-25 -1 -50 2 l-46 7 0 64 0 64 60 0 c44 0 60 -4 60 -14z m150 -13 c0 -29 -27
-94 -52 -127 -13 -17 -19 -17 -52 -6 -29 9 -36 16 -31 29 4 9 9 42 12 74 l6
57 58 0 c58 0 59 -1 59 -27z m-310 -188 c0 -42 -2 -45 -19 -35 -19 9 -61 61
-61 74 0 3 18 6 40 6 l40 0 0 -45z m120 37 c0 -12 -60 -82 -71 -82 -5 0 -9 20
-9 45 l0 45 40 0 c22 0 40 -3 40 -8z m-211 -47 c11 -19 17 -35 14 -35 -9 0
-93 50 -93 56 0 7 44 22 51 18 4 -2 16 -20 28 -39z m296 24 c5 -7 -73 -59 -89
-59 -3 0 5 18 19 39 20 29 31 37 46 34 11 -3 22 -9 24 -14z"/>
</g>
</svg>
