<?xml version="1.0" standalone="no"?>
<!DOCTYPE svg PUBLIC "-//W3C//DTD SVG 20010904//EN"
 "http://www.w3.org/TR/2001/REC-SVG-20010904/DTD/svg10.dtd">
<svg version="1.0" xmlns="http://www.w3.org/2000/svg"
 width="60.000000pt" height="60.000000pt" viewBox="0 0 60.000000 60.000000"
 preserveAspectRatio="xMidYMid meet">

<g transform="translate(0.000000,60.000000) scale(0.100000,-0.100000)"
fill="#000000" stroke="none">
<path d="M145 571 c-46 -21 -79 -54 -94 -94 -16 -41 -14 -122 3 -136 8 -7 18
-26 21 -42 4 -17 22 -46 41 -65 38 -37 37 -58 -1 -48 -20 5 -33 -2 -65 -36
-22 -23 -40 -45 -40 -50 0 -5 -3 -15 -6 -24 -3 -9 -1 -16 5 -16 6 0 11 8 11
18 0 29 44 65 69 57 12 -4 21 -2 21 4 0 6 -7 11 -15 11 -8 0 -15 4 -15 9 0 23
22 20 61 -9 52 -37 69 -38 123 0 40 27 56 29 56 8 0 -4 -7 -8 -15 -8 -8 0 -15
-5 -15 -11 0 -6 9 -8 23 -3 29 9 30 9 22 33 -9 29 -35 26 -83 -9 -49 -35 -50
-35 -80 -12 -33 25 -20 52 25 52 42 0 85 21 112 56 17 22 21 41 21 110 0 106
-9 114 -126 114 -102 0 -125 -14 -135 -86 l-6 -49 -2 60 c-1 70 20 114 71 145
43 26 49 26 125 -12 79 -39 93 -58 93 -125 0 -33 4 -53 11 -53 8 0 10 18 5 62
-7 68 -27 98 -79 119 -18 7 -44 21 -59 31 -32 22 -33 22 -83 -1z m159 -127
c11 -11 16 -34 16 -77 0 -99 -42 -150 -121 -149 -76 1 -109 46 -109 149 0 40
5 74 12 81 19 19 183 16 202 -4z"/>
<path d="M176 268 c3 -4 16 -8 30 -8 13 0 24 4 24 8 0 5 -13 9 -30 9 -16 0
-27 -4 -24 -9z"/>
<path d="M388 578 c-16 -5 -28 -14 -28 -19 0 -12 7 -11 32 2 17 9 23 8 30 -5
6 -11 17 -15 29 -11 10 3 28 8 39 11 13 3 20 1 20 -9 0 -8 13 -20 30 -27 24
-10 28 -15 20 -30 -6 -10 -10 -43 -10 -74 0 -30 -4 -58 -10 -61 -6 -4 -10 10
-10 35 0 56 -34 90 -90 90 -25 0 -39 -4 -35 -10 3 -5 23 -10 44 -10 52 0 61
-13 61 -93 0 -109 -38 -153 -128 -149 -33 1 -43 -1 -32 -8 8 -5 31 -10 51 -10
29 0 38 -5 48 -27 11 -23 10 -29 -5 -40 -10 -7 -15 -16 -11 -20 8 -7 47 26 47
40 0 6 -7 18 -16 28 -15 16 -13 20 19 53 19 19 38 48 42 65 3 16 13 35 21 42
9 7 14 30 14 61 0 27 6 64 14 83 14 33 14 34 -16 44 -16 6 -32 19 -35 30 -4
17 -9 18 -41 9 -29 -8 -38 -7 -48 6 -6 9 -13 16 -15 15 -2 0 -16 -5 -31 -11z"/>
<path d="M366 269 c7 -11 51 -12 58 -1 3 4 -11 9 -30 9 -18 1 -31 -3 -28 -8z"/>
<path d="M544 126 c20 -18 36 -41 36 -50 0 -9 5 -16 10 -16 12 0 12 0 -1 39
-6 18 -24 38 -40 46 -43 23 -44 18 -5 -19z"/>
<path d="M371 120 c0 -8 6 -26 14 -40 13 -23 14 -23 15 -4 0 11 -7 29 -15 40
-11 14 -14 15 -14 4z"/>
</g>
</svg>
